<svg data-v-fde0c5aa="" xmlns="http://www.w3.org/2000/svg" viewBox="0 0 300 300" class="font"><!----><defs data-v-fde0c5aa=""><!----></defs><rect data-v-fde0c5aa="" fill="transparent" x="0" y="0" width="300px" height="300px" class="logo-background-square"></rect><defs data-v-fde0c5aa=""><linearGradient data-v-fde0c5aa="" gradientTransform="rotate(25)" id="05a84929-ebb4-43bb-b0e9-a2f110f30fb0" x1="0%" y1="0%" x2="100%" y2="0%"><stop data-v-fde0c5aa="" offset="0%" stop-color="#43B33F" stop-opacity="1"></stop><stop data-v-fde0c5aa="" offset="100%" stop-color="#9CD124" stop-opacity="1"></stop></linearGradient></defs><g data-v-fde0c5aa="" id="69f80d2b-3665-4e92-b47c-ad03c364d406" fill="url(#05a84929-ebb4-43bb-b0e9-a2f110f30fb0)" transform="matrix(2.068610906600952,0,0,2.068610906600952,39.62829648130465,132.90163814001323)"><path d="M6.10 13.45L6.10 11.58L7.14 11.58L6.67 10.09L3.49 10.09L3.02 11.58L4.12 11.58L4.12 13.45L0.18 13.45L0.18 11.58L0.96 11.58L3.78 3.09L6.52 3.09L9.28 11.58L10.04 11.58L10.04 13.45L6.10 13.45ZM5.07 4.97L4.03 8.34L6.12 8.34L5.07 4.97ZM15.13 8.24L15.13 6.37L18.48 6.37L18.48 11.58L19.34 11.58L19.34 13.45L16.34 13.45L16.34 12.85L16.34 12.85Q15.98 13.18 15.49 13.36L15.49 13.36L15.49 13.36Q15.00 13.54 14.37 13.54L14.37 13.54L14.37 13.54Q13.78 13.54 13.26 13.35L13.26 13.35L13.26 13.35Q12.74 13.17 12.36 12.79L12.36 12.79L12.36 12.79Q11.97 12.42 11.75 11.86L11.75 11.86L11.75 11.86Q11.53 11.30 11.53 10.54L11.53 10.54L11.53 8.24L10.60 8.24L10.60 6.37L13.73 6.37L13.73 10.54L13.73 10.54Q13.73 11.25 14.10 11.60L14.10 11.60L14.10 11.60Q14.46 11.96 15.04 11.96L15.04 11.96L15.04 11.96Q15.45 11.96 15.78 11.70L15.78 11.70L15.78 11.70Q16.12 11.45 16.27 11.02L16.27 11.02L16.27 8.24L15.13 8.24ZM23.06 3.66L23.05 6.37L24.47 6.37L24.47 8.16L23.04 8.16L23.02 11.16L23.02 11.16Q23.02 11.42 23.06 11.58L23.06 11.58L23.06 11.58Q23.11 11.74 23.18 11.83L23.18 11.83L23.18 11.83Q23.26 11.93 23.37 11.96L23.37 11.96L23.37 11.96Q23.48 12.00 23.63 12.00L23.63 12.00L23.63 12.00Q23.88 12.00 24.08 11.95L24.08 11.95L24.08 11.95Q24.28 11.89 24.48 11.83L24.48 11.83L24.77 13.15L24.77 13.15Q24.42 13.36 24.00 13.49L24.00 13.49L24.00 13.49Q23.57 13.62 22.98 13.62L22.98 13.62L22.98 13.62Q22.57 13.62 22.19 13.48L22.19 13.48L22.19 13.48Q21.81 13.34 21.52 13.05L21.52 13.05L21.52 13.05Q21.23 12.76 21.06 12.32L21.06 12.32L21.06 12.32Q20.89 11.88 20.90 11.30L20.90 11.30L20.92 8.16L19.90 8.16L19.90 6.37L20.92 6.37L20.94 4.68L23.06 3.66ZM25.79 9.88L25.79 9.88L25.79 9.88Q25.79 9.11 26.07 8.44L26.07 8.44L26.07 8.44Q26.35 7.76 26.85 7.25L26.85 7.25L26.85 7.25Q27.35 6.75 28.04 6.45L28.04 6.45L28.04 6.45Q28.73 6.16 29.56 6.16L29.56 6.16L29.56 6.16Q30.39 6.16 31.08 6.45L31.08 6.45L31.08 6.45Q31.77 6.75 32.27 7.25L32.27 7.25L32.27 7.25Q32.77 7.76 33.05 8.44L33.05 8.44L33.05 8.44Q33.33 9.11 33.33 9.88L33.33 9.88L33.33 9.88Q33.33 10.66 33.06 11.34L33.06 11.34L33.06 11.34Q32.79 12.02 32.29 12.53L32.29 12.53L32.29 12.53Q31.79 13.04 31.10 13.33L31.10 13.33L31.10 13.33Q30.41 13.62 29.56 13.62L29.56 13.62L29.56 13.62Q28.70 13.62 28.01 13.33L28.01 13.33L28.01 13.33Q27.32 13.04 26.82 12.53L26.82 12.53L26.82 12.53Q26.33 12.02 26.06 11.34L26.06 11.34L26.06 11.34Q25.79 10.66 25.79 9.88ZM27.84 9.88L27.84 9.88L27.84 9.88Q27.84 10.29 27.97 10.63L27.97 10.63L27.97 10.63Q28.11 10.96 28.35 11.21L28.35 11.21L28.35 11.21Q28.58 11.46 28.89 11.59L28.89 11.59L28.89 11.59Q29.20 11.73 29.56 11.73L29.56 11.73L29.56 11.73Q29.92 11.73 30.23 11.60L30.23 11.60L30.23 11.60Q30.54 11.46 30.77 11.22L30.77 11.22L30.77 11.22Q31.00 10.97 31.13 10.63L31.13 10.63L31.13 10.63Q31.26 10.29 31.26 9.88L31.26 9.88L31.26 9.88Q31.26 9.46 31.13 9.12L31.13 9.12L31.13 9.12Q31.00 8.78 30.77 8.54L30.77 8.54L30.77 8.54Q30.54 8.30 30.23 8.17L30.23 8.17L30.23 8.17Q29.92 8.05 29.56 8.05L29.56 8.05L29.56 8.05Q29.20 8.05 28.89 8.17L28.89 8.17L28.89 8.17Q28.58 8.30 28.35 8.54L28.35 8.54L28.35 8.54Q28.11 8.78 27.97 9.12L27.97 9.12L27.97 9.12Q27.84 9.46 27.84 9.88ZM44.14 13.45L42.10 13.45L42.10 11.68L42.10 11.68Q41.67 12.42 41.27 12.77L41.27 12.77L41.27 12.77Q40.87 13.12 40.36 13.33L40.36 13.33L40.36 13.33Q39.85 13.54 38.99 13.54L38.99 13.54L38.99 13.54Q38.57 13.53 38.14 13.44L38.14 13.44L38.14 13.44Q37.72 13.34 37.32 13.18L37.32 13.18L37.32 13.18Q36.93 13.01 36.55 12.77L36.55 12.77L36.55 12.77Q36.17 12.54 35.86 12.23L35.86 12.23L35.86 12.23Q35.10 11.46 34.68 10.46L34.68 10.46L34.68 10.46Q34.26 9.45 34.26 8.26L34.26 8.26L34.26 8.26Q34.26 7.53 34.44 6.84L34.44 6.84L34.44 6.84Q34.62 6.16 34.94 5.56L34.94 5.56L34.94 5.56Q35.26 4.97 35.71 4.48L35.71 4.48L35.71 4.48Q36.17 3.99 36.73 3.64L36.73 3.64L36.73 3.64Q37.28 3.29 37.93 3.10L37.93 3.10L37.93 3.10Q38.57 2.91 39.27 2.91L39.27 2.91L39.27 2.91Q40.08 2.91 40.67 3.13L40.67 3.13L40.67 3.13Q41.27 3.34 41.95 3.93L41.95 3.93L43.48 3.93L43.48 6.24L41.37 6.24L41.37 6.24Q41.06 5.76 40.78 5.54L40.78 5.54L40.78 5.54Q40.50 5.32 40.18 5.17L40.18 5.17L40.18 5.17Q39.85 5.03 39.27 5.03L39.27 5.03L39.27 5.03Q38.70 5.03 38.21 5.29L38.21 5.29L38.21 5.29Q37.71 5.55 37.35 5.99L37.35 5.99L37.35 5.99Q37.00 6.43 36.79 7.03L36.79 7.03L36.79 7.03Q36.59 7.63 36.59 8.26L36.59 8.26L36.59 8.26Q36.59 8.88 36.77 9.44L36.77 9.44L36.77 9.44Q36.96 10.00 37.33 10.45L37.33 10.45L37.33 10.45Q37.71 10.90 38.21 11.14L38.21 11.14L38.21 11.14Q38.71 11.38 39.27 11.38L39.27 11.38L39.27 11.38Q40.00 11.38 40.54 10.95L40.54 10.95L40.54 10.95Q41.08 10.53 41.32 9.80L41.32 9.80L39.34 9.80L39.34 7.92L44.14 7.92L44.14 13.45ZM51.97 6.38L51.97 8.95L50.05 8.95L50.05 8.22L50.05 8.22Q49.77 8.22 49.53 8.25L49.53 8.25L49.53 8.25Q49.30 8.29 49.13 8.38L49.13 8.38L49.13 8.38Q48.95 8.47 48.83 8.63L48.83 8.63L48.83 8.63Q48.71 8.78 48.67 9.02L48.67 9.02L48.67 11.58L50.11 11.58L50.11 13.45L45.49 13.45L45.49 11.58L46.55 11.58L46.55 8.24L45.50 8.24L45.50 6.37L48.65 6.37L48.65 6.87L48.65 6.87Q48.95 6.63 49.33 6.50L49.33 6.50L49.33 6.50Q49.70 6.37 50.15 6.37L50.15 6.37L50.15 6.37Q50.60 6.37 51.08 6.38L51.08 6.38L51.08 6.38Q51.56 6.38 51.97 6.38L51.97 6.38ZM57.48 13.45L57.48 13.07L57.48 13.07Q57.24 13.22 57.05 13.33L57.05 13.33L57.05 13.33Q56.85 13.43 56.65 13.50L56.65 13.50L56.65 13.50Q56.45 13.56 56.24 13.59L56.24 13.59L56.24 13.59Q56.03 13.62 55.77 13.62L55.77 13.62L55.77 13.62Q55.14 13.62 54.64 13.45L54.64 13.45L54.64 13.45Q54.13 13.28 53.79 12.97L53.79 12.97L53.79 12.97Q53.44 12.67 53.26 12.25L53.26 12.25L53.26 12.25Q53.07 11.84 53.07 11.35L53.07 11.35L53.07 11.35Q53.07 10.86 53.26 10.45L53.26 10.45L53.26 10.45Q53.45 10.03 53.81 9.73L53.81 9.73L53.81 9.73Q54.16 9.43 54.68 9.27L54.68 9.27L54.68 9.27Q55.19 9.10 55.86 9.10L55.86 9.10L55.86 9.10Q56.34 9.10 56.74 9.15L56.74 9.15L56.74 9.15Q57.14 9.20 57.48 9.28L57.48 9.28L57.48 9.06L57.48 9.06Q57.48 8.79 57.38 8.60L57.38 8.60L57.38 8.60Q57.28 8.40 57.09 8.27L57.09 8.27L57.09 8.27Q56.91 8.15 56.65 8.09L56.65 8.09L56.65 8.09Q56.39 8.03 56.08 8.03L56.08 8.03L56.08 8.03Q55.44 8.03 54.95 8.16L54.95 8.16L54.95 8.16Q54.46 8.29 54.01 8.52L54.01 8.52L53.35 7.20L53.35 7.20Q54.05 6.72 54.81 6.47L54.81 6.47L54.81 6.47Q55.58 6.21 56.43 6.21L56.43 6.21L56.43 6.21Q57.09 6.21 57.66 6.36L57.66 6.36L57.66 6.36Q58.22 6.51 58.63 6.84L58.63 6.84L58.63 6.84Q59.03 7.17 59.26 7.70L59.26 7.70L59.26 7.70Q59.49 8.24 59.49 9.00L59.49 9.00L59.49 11.58L60.44 11.58L60.44 13.45L57.48 13.45ZM55.92 12.01L55.92 12.01L55.92 12.01Q56.41 12.01 56.81 11.85L56.81 11.85L56.81 11.85Q57.20 11.70 57.48 11.47L57.48 11.47L57.48 10.57L55.84 10.57L55.84 10.57Q55.69 10.57 55.54 10.62L55.54 10.62L55.54 10.62Q55.38 10.66 55.27 10.75L55.27 10.75L55.27 10.75Q55.15 10.84 55.07 10.97L55.07 10.97L55.07 10.97Q55.00 11.10 55.00 11.27L55.00 11.27L55.00 11.27Q55.00 11.59 55.23 11.80L55.23 11.80L55.23 11.80Q55.46 12.01 55.92 12.01ZM61.89 8.24L61.89 6.37L65.13 6.37L65.13 6.99L65.13 6.99Q65.57 6.64 66.12 6.43L66.12 6.43L66.12 6.43Q66.66 6.23 67.25 6.23L67.25 6.23L67.25 6.23Q68.05 6.23 68.63 6.51L68.63 6.51L68.63 6.51Q69.21 6.79 69.54 7.38L69.54 7.38L69.54 7.38Q69.76 7.12 70.04 6.91L70.04 6.91L70.04 6.91Q70.33 6.71 70.65 6.55L70.65 6.55L70.65 6.55Q70.97 6.40 71.32 6.31L71.32 6.31L71.32 6.31Q71.67 6.23 72.04 6.23L72.04 6.23L72.04 6.23Q73.34 6.23 74.04 6.95L74.04 6.95L74.04 6.95Q74.74 7.66 74.74 9.04L74.74 9.04L74.74 11.58L75.74 11.58L75.74 13.45L72.51 13.45L72.51 9.39L72.51 9.39Q72.51 8.79 72.20 8.45L72.20 8.45L72.20 8.45Q71.89 8.11 71.33 8.11L71.33 8.11L71.33 8.11Q70.95 8.11 70.61 8.29L70.61 8.29L70.61 8.29Q70.27 8.47 69.94 8.91L69.94 8.91L69.94 8.91Q69.95 8.99 69.95 9.07L69.95 9.07L69.95 9.07Q69.95 9.15 69.95 9.23L69.95 9.23L69.95 11.58L70.97 11.58L70.97 13.45L67.74 13.45L67.74 9.38L67.74 9.38Q67.74 9.09 67.65 8.86L67.65 8.86L67.65 8.86Q67.56 8.63 67.40 8.46L67.40 8.46L67.40 8.46Q67.25 8.30 67.03 8.21L67.03 8.21L67.03 8.21Q66.81 8.11 66.55 8.11L66.55 8.11L66.55 8.11Q66.21 8.10 65.85 8.26L65.85 8.26L65.85 8.26Q65.48 8.42 65.15 8.84L65.15 8.84L65.15 11.58L66.28 11.58L66.28 13.45L61.88 13.45L61.88 11.58L62.93 11.58L62.93 8.24L61.89 8.24ZM76.63 8.24L76.63 6.37L79.87 6.37L79.87 6.99L79.87 6.99Q80.31 6.64 80.86 6.43L80.86 6.43L80.86 6.43Q81.40 6.23 81.98 6.23L81.98 6.23L81.98 6.23Q82.79 6.23 83.37 6.51L83.37 6.51L83.37 6.51Q83.95 6.79 84.27 7.38L84.27 7.38L84.27 7.38Q84.50 7.12 84.78 6.91L84.78 6.91L84.78 6.91Q85.07 6.71 85.39 6.55L85.39 6.55L85.39 6.55Q85.71 6.40 86.06 6.31L86.06 6.31L86.06 6.31Q86.41 6.23 86.78 6.23L86.78 6.23L86.78 6.23Q88.08 6.23 88.78 6.95L88.78 6.95L88.78 6.95Q89.48 7.66 89.48 9.04L89.48 9.04L89.48 11.58L90.48 11.58L90.48 13.45L87.25 13.45L87.25 9.39L87.25 9.39Q87.25 8.79 86.94 8.45L86.94 8.45L86.94 8.45Q86.63 8.11 86.07 8.11L86.07 8.11L86.07 8.11Q85.69 8.11 85.35 8.29L85.35 8.29L85.35 8.29Q85.01 8.47 84.68 8.91L84.68 8.91L84.68 8.91Q84.68 8.99 84.68 9.07L84.68 9.07L84.68 9.07Q84.68 9.15 84.68 9.23L84.68 9.23L84.68 11.58L85.71 11.58L85.71 13.45L82.48 13.45L82.48 9.38L82.48 9.38Q82.48 9.09 82.39 8.86L82.39 8.86L82.39 8.86Q82.30 8.63 82.14 8.46L82.14 8.46L82.14 8.46Q81.98 8.30 81.77 8.21L81.77 8.21L81.77 8.21Q81.55 8.11 81.29 8.11L81.29 8.11L81.29 8.11Q80.95 8.10 80.59 8.26L80.59 8.26L80.59 8.26Q80.22 8.42 79.88 8.84L79.88 8.84L79.88 11.58L81.02 11.58L81.02 13.45L76.62 13.45L76.62 11.58L77.67 11.58L77.67 8.24L76.63 8.24ZM95.71 13.45L95.71 13.07L95.71 13.07Q95.47 13.22 95.27 13.33L95.27 13.33L95.27 13.33Q95.07 13.43 94.88 13.50L94.88 13.50L94.88 13.50Q94.68 13.56 94.47 13.59L94.47 13.59L94.47 13.59Q94.25 13.62 94.00 13.62L94.00 13.62L94.00 13.62Q93.37 13.62 92.86 13.45L92.86 13.45L92.86 13.45Q92.36 13.28 92.02 12.97L92.02 12.97L92.02 12.97Q91.67 12.67 91.49 12.25L91.49 12.25L91.49 12.25Q91.30 11.84 91.30 11.35L91.30 11.35L91.30 11.35Q91.30 10.86 91.49 10.45L91.49 10.45L91.49 10.45Q91.68 10.03 92.03 9.73L92.03 9.73L92.03 9.73Q92.39 9.43 92.90 9.27L92.90 9.27L92.90 9.27Q93.42 9.10 94.08 9.10L94.08 9.10L94.08 9.10Q94.57 9.10 94.97 9.15L94.97 9.15L94.97 9.15Q95.37 9.20 95.71 9.28L95.71 9.28L95.71 9.06L95.71 9.06Q95.71 8.79 95.61 8.60L95.61 8.60L95.61 8.60Q95.50 8.40 95.32 8.27L95.32 8.27L95.32 8.27Q95.14 8.15 94.88 8.09L94.88 8.09L94.88 8.09Q94.62 8.03 94.31 8.03L94.31 8.03L94.31 8.03Q93.67 8.03 93.18 8.16L93.18 8.16L93.18 8.16Q92.69 8.29 92.24 8.52L92.24 8.52L91.58 7.20L91.58 7.20Q92.28 6.72 93.04 6.47L93.04 6.47L93.04 6.47Q93.80 6.21 94.66 6.21L94.66 6.21L94.66 6.21Q95.32 6.21 95.88 6.36L95.88 6.36L95.88 6.36Q96.45 6.51 96.85 6.84L96.85 6.84L96.85 6.84Q97.25 7.17 97.48 7.70L97.48 7.70L97.48 7.70Q97.71 8.24 97.71 9.00L97.71 9.00L97.71 11.58L98.66 11.58L98.66 13.45L95.71 13.45ZM94.15 12.01L94.15 12.01L94.15 12.01Q94.64 12.01 95.03 11.85L95.03 11.85L95.03 11.85Q95.43 11.70 95.71 11.47L95.71 11.47L95.71 10.57L94.07 10.57L94.07 10.57Q93.91 10.57 93.76 10.62L93.76 10.62L93.76 10.62Q93.61 10.66 93.49 10.75L93.49 10.75L93.49 10.75Q93.37 10.84 93.30 10.97L93.30 10.97L93.30 10.97Q93.23 11.10 93.23 11.27L93.23 11.27L93.23 11.27Q93.23 11.59 93.46 11.80L93.46 11.80L93.46 11.80Q93.69 12.01 94.15 12.01ZM106.53 6.38L106.53 8.95L104.61 8.95L104.61 8.22L104.61 8.22Q104.33 8.22 104.10 8.25L104.10 8.25L104.10 8.25Q103.87 8.29 103.69 8.38L103.69 8.38L103.69 8.38Q103.52 8.47 103.40 8.63L103.40 8.63L103.40 8.63Q103.28 8.78 103.23 9.02L103.23 9.02L103.23 11.58L104.67 11.58L104.67 13.45L100.05 13.45L100.05 11.58L101.11 11.58L101.11 8.24L100.06 8.24L100.06 6.37L103.22 6.37L103.22 6.87L103.22 6.87Q103.52 6.63 103.89 6.50L103.89 6.50L103.89 6.50Q104.27 6.37 104.71 6.37L104.71 6.37L104.71 6.37Q105.16 6.37 105.64 6.38L105.64 6.38L105.64 6.38Q106.12 6.38 106.53 6.38L106.53 6.38Z"></path></g><!----><!----></svg>